<mxfile host="65bd71144e" pages="2">
    <diagram id="jENJKvlV3dbCBk_Ef1xG" name="use_case">
        <mxGraphModel dx="635" dy="536" grid="1" gridSize="10" guides="1" tooltips="1" connect="1" arrows="1" fold="1" page="1" pageScale="1" pageWidth="1169" pageHeight="827" math="0" shadow="0">
            <root>
                <mxCell id="0"/>
                <mxCell id="1" parent="0"/>
                <mxCell id="wUWMKY9H5VIVmJC1q5Jj-3" style="edgeStyle=orthogonalEdgeStyle;rounded=0;orthogonalLoop=1;jettySize=auto;html=1;exitX=0.5;exitY=0.5;exitDx=0;exitDy=0;exitPerimeter=0;endArrow=none;endFill=0;" parent="1" source="wUWMKY9H5VIVmJC1q5Jj-1" target="wUWMKY9H5VIVmJC1q5Jj-2" edge="1">
                    <mxGeometry relative="1" as="geometry"/>
                </mxCell>
                <mxCell id="wUWMKY9H5VIVmJC1q5Jj-1" value="User" style="shape=umlActor;verticalLabelPosition=bottom;verticalAlign=top;html=1;outlineConnect=0;" parent="1" vertex="1">
                    <mxGeometry x="80" y="80" width="30" height="60" as="geometry"/>
                </mxCell>
                <mxCell id="wUWMKY9H5VIVmJC1q5Jj-2" value="Add records CSV file" style="ellipse;whiteSpace=wrap;html=1;" parent="1" vertex="1">
                    <mxGeometry x="200" y="70" width="120" height="80" as="geometry"/>
                </mxCell>
                <mxCell id="wUWMKY9H5VIVmJC1q5Jj-4" value="Browse files" style="ellipse;whiteSpace=wrap;html=1;" parent="1" vertex="1">
                    <mxGeometry x="400" y="70" width="120" height="80" as="geometry"/>
                </mxCell>
                <mxCell id="wUWMKY9H5VIVmJC1q5Jj-5" value="&amp;lt;&amp;lt;extend&amp;gt;&amp;gt;" style="edgeStyle=none;html=1;startArrow=open;endArrow=none;startSize=12;verticalAlign=bottom;dashed=1;labelBackgroundColor=none;rounded=0;" parent="1" edge="1">
                    <mxGeometry width="160" relative="1" as="geometry">
                        <mxPoint x="40" y="600" as="sourcePoint"/>
                        <mxPoint x="200" y="600" as="targetPoint"/>
                    </mxGeometry>
                </mxCell>
                <mxCell id="wUWMKY9H5VIVmJC1q5Jj-6" value="&amp;lt;&amp;lt;include&amp;gt;&amp;gt;" style="edgeStyle=none;html=1;endArrow=open;verticalAlign=bottom;dashed=1;labelBackgroundColor=none;rounded=0;" parent="1" edge="1">
                    <mxGeometry width="160" relative="1" as="geometry">
                        <mxPoint x="40" y="640" as="sourcePoint"/>
                        <mxPoint x="200" y="640" as="targetPoint"/>
                    </mxGeometry>
                </mxCell>
                <mxCell id="wUWMKY9H5VIVmJC1q5Jj-7" value="&amp;lt;&amp;lt;include&amp;gt;&amp;gt;" style="edgeStyle=none;html=1;endArrow=open;verticalAlign=bottom;dashed=1;labelBackgroundColor=none;rounded=0;" parent="1" source="wUWMKY9H5VIVmJC1q5Jj-2" target="wUWMKY9H5VIVmJC1q5Jj-4" edge="1">
                    <mxGeometry width="160" relative="1" as="geometry">
                        <mxPoint x="340" y="200" as="sourcePoint"/>
                        <mxPoint x="500" y="200" as="targetPoint"/>
                    </mxGeometry>
                </mxCell>
                <mxCell id="dJeBV5FFnEENrYUGtMYk-3" style="rounded=0;orthogonalLoop=1;jettySize=auto;html=1;exitX=0;exitY=0.5;exitDx=0;exitDy=0;endArrow=none;endFill=0;entryX=0.5;entryY=0.5;entryDx=0;entryDy=0;entryPerimeter=0;" parent="1" source="dJeBV5FFnEENrYUGtMYk-1" target="wUWMKY9H5VIVmJC1q5Jj-1" edge="1">
                    <mxGeometry relative="1" as="geometry">
                        <mxPoint x="190" y="180" as="targetPoint"/>
                    </mxGeometry>
                </mxCell>
                <mxCell id="dJeBV5FFnEENrYUGtMYk-1" value="View records" style="ellipse;whiteSpace=wrap;html=1;" parent="1" vertex="1">
                    <mxGeometry x="200" y="170" width="120" height="80" as="geometry"/>
                </mxCell>
                <mxCell id="dJeBV5FFnEENrYUGtMYk-6" value="&amp;lt;&amp;lt;extend&amp;gt;&amp;gt;" style="edgeStyle=none;html=1;startArrow=open;endArrow=none;startSize=12;verticalAlign=bottom;dashed=1;labelBackgroundColor=none;rounded=0;" parent="1" source="dJeBV5FFnEENrYUGtMYk-1" target="dJeBV5FFnEENrYUGtMYk-7" edge="1">
                    <mxGeometry width="160" relative="1" as="geometry">
                        <mxPoint x="360" y="209.5" as="sourcePoint"/>
                        <mxPoint x="410" y="210" as="targetPoint"/>
                    </mxGeometry>
                </mxCell>
                <mxCell id="dJeBV5FFnEENrYUGtMYk-7" value="Filter records" style="ellipse;whiteSpace=wrap;html=1;" parent="1" vertex="1">
                    <mxGeometry x="400" y="170" width="120" height="80" as="geometry"/>
                </mxCell>
                <mxCell id="dJeBV5FFnEENrYUGtMYk-10" value="" style="endArrow=block;html=1;rounded=0;endSize=16;endFill=0;edgeStyle=orthogonalEdgeStyle;" parent="1" edge="1">
                    <mxGeometry x="1" y="191" width="50" height="50" relative="1" as="geometry">
                        <mxPoint x="40" y="560" as="sourcePoint"/>
                        <mxPoint x="200" y="560" as="targetPoint"/>
                        <mxPoint x="1" y="-20" as="offset"/>
                    </mxGeometry>
                </mxCell>
                <mxCell id="dJeBV5FFnEENrYUGtMYk-11" value="" style="endArrow=block;html=1;rounded=0;endSize=16;endFill=0;edgeStyle=orthogonalEdgeStyle;" parent="1" source="dJeBV5FFnEENrYUGtMYk-12" target="dJeBV5FFnEENrYUGtMYk-7" edge="1">
                    <mxGeometry x="1" y="-234" width="50" height="50" relative="1" as="geometry">
                        <mxPoint x="459.5" y="370" as="sourcePoint"/>
                        <mxPoint x="459.5" y="290" as="targetPoint"/>
                        <mxPoint x="-84" y="-180" as="offset"/>
                    </mxGeometry>
                </mxCell>
                <mxCell id="dJeBV5FFnEENrYUGtMYk-12" value="Filter by date" style="ellipse;whiteSpace=wrap;html=1;" parent="1" vertex="1">
                    <mxGeometry x="400" y="330" width="120" height="80" as="geometry"/>
                </mxCell>
            </root>
        </mxGraphModel>
    </diagram>
    <diagram id="STJ0p5yN3lM192CqCmxB" name="class">
        <mxGraphModel dx="635" dy="536" grid="1" gridSize="10" guides="1" tooltips="1" connect="1" arrows="1" fold="1" page="1" pageScale="1" pageWidth="1169" pageHeight="827" math="0" shadow="0">
            <root>
                <mxCell id="0"/>
                <mxCell id="1" parent="0"/>
            </root>
        </mxGraphModel>
    </diagram>
</mxfile>